<?xml version="1.0" encoding="UTF-8"?>
<svg width="150px" height="47px" viewBox="0 0 150 47" version="1.1" xmlns="http://www.w3.org/2000/svg" xmlns:xlink="http://www.w3.org/1999/xlink">
    <title>Group 3</title>
    <defs>
        <filter id="filter-1">
            <feColorMatrix in="SourceGraphic" type="matrix" values="0 0 0 0 1.000000 0 0 0 0 1.000000 0 0 0 0 1.000000 0 0 0 1.000000 0"></feColorMatrix>
        </filter>
        <polygon id="path-2" points="1.86506147e-05 0 149.884363 0 149.884363 46.0759705 1.86506147e-05 46.0759705"></polygon>
    </defs>
    <g id="Concept-3" stroke="none" stroke-width="1" fill="none" fill-rule="evenodd">
        <g id="Group-3" transform="translate(-58.000000, -21.000000)" filter="url(#filter-1)">
            <g transform="translate(58.000000, 21.000000)">
                <mask id="mask-3" fill="white">
                    <use xlink:href="#path-2"></use>
                </mask>
                <g id="Clip-2"></g>
                <path d="M65.9520627,34.0343177 C59.8830513,34.0343177 54.9629943,29.1037152 54.9629943,23.0216956 C54.9629943,16.9395332 59.8830513,12.0089307 65.9520627,12.0089307 C72.0210741,12.0089307 76.9411312,16.9395332 76.9411312,23.0216956 C76.9411312,29.1037152 72.0210741,34.0343177 65.9520627,34.0343177 M145.928156,1.69104549 C142.401302,-0.0886639676 138.085665,1.36353894 136.323878,4.93596094 L128.725494,20.2516075 L123.805722,5.76987378 L123.796312,5.76858776 C122.81846,2.95477495 120.160238,0.936580138 117.033764,0.936580138 C114.541226,0.936580138 112.346407,2.21931412 111.063137,4.165206 L111.052728,4.16391998 L101.236283,19.2406525 L99.4968821,7.02560133 C98.8954563,3.09323648 95.2461217,0.413884258 91.348403,1.01531317 C87.4458365,1.61459871 84.7675095,5.24789236 85.3659411,9.15882353 L85.6702186,11.2070255 C81.6565779,4.49442724 74.3278232,-7.14455823e-05 65.9509221,-7.14455823e-05 C57.5011597,-7.14455823e-05 50.1180798,4.57430341 46.1283935,11.3854965 L46.5654183,9.24055728 C47.3298194,5.48866397 44.9144202,1.82593475 41.1701236,1.05989521 C37.4272529,0.295856156 33.7710741,2.71486068 33.0073859,6.46703977 L30.0329087,21.0696594 L19.0918916,4.0973327 C17.8545342,2.1970231 15.7200285,0.941581329 13.2937928,0.941581329 C9.97297529,0.941581329 7.19854563,3.29299833 6.52368821,6.43131698 L0.143127376,37.7311979 C-0.620988593,41.4830912 1.74821293,45.1296737 5.4984981,45.9261491 C5.96475285,46.0251727 6.47007605,46.0726125 6.92934411,46.0760668 C10.1383745,46.0984758 13.0261597,43.8409383 13.7010171,40.5047154 L16.6760646,25.9022386 C16.6760646,25.9022386 27.4054848,42.5957847 27.4143251,42.6056442 C27.4143251,42.6056442 27.6665589,42.9954513 27.7860456,43.1646344 C29.0101426,44.8984758 31.0844772,46.0760668 33.4177471,46.0760668 C36.8293916,46.0760668 39.6644202,43.5898785 40.2346198,40.3185282 L43.1631844,25.9421053 C44.5950285,37.2769469 54.2517776,46.0433198 65.9509221,46.0433198 C76.728251,46.0433198 85.7704563,38.6055489 88.2497338,28.5743034 L89.8814829,39.5594904 C90.340751,43.1753513 93.2996863,46.0367468 97.0079087,46.0367468 C99.6755418,46.0367468 101.851683,44.5098119 103.235333,42.3885925 L115.003774,24.3138604 L120.656293,40.9541081 C121.66865,43.9216718 124.282671,46.0367468 127.501255,46.0367468 C130.491274,46.0367468 132.840941,44.2383186 134.12635,41.5683972 L149.12692,11.3104787 C150.89712,7.76291974 149.457148,3.47175518 145.928156,1.69104549" id="Fill-1" fill="#FFFFFF" mask="url(#mask-3)"></path>
            </g>
        </g>
    </g>
</svg>